<?xml version="1.0" encoding="UTF-8"?>
<svg width="700pt" height="700pt" version="1.1" viewBox="0 0 700 700" xmlns="http://www.w3.org/2000/svg">
 <path d="m581.7 88.898-462.35-1.3984c-8.1992-0.046875-16.078 3.1797-21.895 8.9609-5.8125 5.7773-9.082 13.641-9.082 21.84l-0.875 275.1c0 8.1719 3.2461 16.004 9.0195 21.781 5.7773 5.7734 13.613 9.0195 21.781 9.0195h151.38l-14.699 83.301h-43.051c-6.2539 0-12.031 3.3359-15.156 8.75s-3.125 12.086 0 17.5 8.9023 8.75 15.156 8.75h276.15c6.2539 0 12.031-3.3359 15.156-8.75s3.125-12.086 0-17.5-8.9023-8.75-15.156-8.75h-42.875l-13.301-82.25h148.75c8.2891 0.28516 16.344-2.7891 22.336-8.5195 5.9961-5.7305 9.4258-13.637 9.5156-21.93v-275.1c0-8.168-3.2461-16.004-9.0195-21.777-5.7773-5.7773-13.613-9.0234-21.781-9.0234zm-172.02 418.6h-119l14.352-81.023h91.523zm167.82-116.9-455-1.4023v-266.7h256.73l198.27 1.3984z"/>
</svg>
