<?xml version="1.0" encoding="UTF-8"?>
<svg width="700pt" height="700pt" version="1.1" viewBox="0 0 700 700" xmlns="http://www.w3.org/2000/svg">
 <path d="m401.07 273.28c22.805-14.789 38.074-38.734 41.867-65.648 3.793-26.91-4.2656-54.145-22.09-74.656-17.828-20.516-43.672-32.297-70.848-32.297s-53.02 11.781-70.848 32.297c-17.824 20.512-25.883 47.746-22.09 74.656 3.793 26.914 19.062 50.859 41.867 65.648-28.352 9.3008-53.062 27.285-70.629 51.406-17.566 24.121-27.105 53.152-27.262 82.992v73.922h297.92v-73.25c-0.015626-29.953-9.4883-59.137-27.066-83.391-17.578-24.254-42.363-42.34-70.824-51.68zm-122.53-78.625c0-18.953 7.5312-37.125 20.93-50.527 13.402-13.402 31.574-20.93 50.527-20.93s37.125 7.5273 50.527 20.93c13.398 13.402 20.93 31.574 20.93 50.527 0 18.949-7.5312 37.125-20.93 50.527-13.402 13.398-31.574 20.93-50.527 20.93-18.934-0.058593-37.074-7.6094-50.461-20.996-13.387-13.387-20.938-31.527-20.996-50.461zm198.02 264.54h-253.12v-50.848c0.058594-31.707 12.68-62.098 35.098-84.516 22.422-22.418 52.812-35.039 84.516-35.102h13.891c31.703 0.0625 62.094 12.684 84.516 35.102 22.418 22.418 35.039 52.809 35.098 84.516z"/>
</svg>
