<?xml version="1.0" encoding="iso-8859-1"?>
<!-- Generator: Adobe Illustrator 19.0.0, SVG Export Plug-In . SVG Version: 6.00 Build 0)  -->
<svg version="1.1" id="Layer_1" xmlns="http://www.w3.org/2000/svg" xmlns:xlink="http://www.w3.org/1999/xlink" x="0px" y="0px"
	 viewBox="0 0 512 512" style="enable-background:new 0 0 512 512;" xml:space="preserve">
<g transform="translate(1 1)">
	<g>
		<path d="M438.292,101.83c-1.882-22.416-20.046-40.746-42.398-42.88c-0.217-0.021-0.437-0.033-0.655-0.051
			c-0.49-0.04-0.98-0.083-1.474-0.107c-0.741-0.037-1.485-0.058-2.232-0.058c-0.724,0-1.444,0.02-2.16,0.056
			c-0.642,0.03-1.278,0.081-1.913,0.137c-0.017,0.002-0.034,0.002-0.051,0.004c-9.684,0.875-18.595,4.782-25.75,10.757
			C360.736,44.156,340.287,24.6,314.733,24.6c-11.69,0-22.483,4.458-30.768,11.73C279.609,15.105,260.044-1,237.933-1
			c-0.163,0-0.324,0.008-0.487,0.01C237.324-0.991,237.203-1,237.08-1c-19.799,0-37.036,12.764-43.836,30.389
			c-7.689-8.331-19.481-13.323-32.111-13.323C135.533,16.067,114.2,37.4,114.2,63v123.733c0,3.413-6.827,11.093-11.093,17.92
			c-13.653,16.213-31.573,39.253-31.573,70.827v39.253c0,76.8,37.547,107.52,51.2,116.053v37.547
			c0,23.893,18.773,42.667,42.667,42.667h196.267c19.627,0,34.133-17.067,34.133-40.107V429.08c3.413-5.12,7.68-10.24,11.093-14.507
			c24.747-30.72,31.573-41.813,31.573-128v-112.64v-68.267v-2.56C438.467,102.615,438.393,102.2,438.292,101.83z M361.667,105.667
			c0-2.542,0.336-5.021,0.965-7.395c0.336-0.591,0.594-1.25,0.742-1.992c3.466-9.704,11.436-17.156,21.166-19.612
			c0.008-0.002,0.016-0.004,0.023-0.006c0.711-0.179,1.433-0.328,2.162-0.452c0.047-0.008,0.093-0.018,0.141-0.026
			c0.69-0.114,1.389-0.198,2.093-0.261c0.147-0.013,0.294-0.024,0.441-0.035c0.706-0.053,1.416-0.089,2.134-0.089
			c0.5,0,0.998,0.013,1.493,0.039c0.058,0.003,0.114,0.009,0.172,0.013c0.449,0.026,0.897,0.059,1.341,0.106
			c0.002,0,0.004,0.001,0.006,0.001c9.902,1.041,18.533,7.14,23.189,15.591c0.003,0.006,0.006,0.012,0.01,0.018
			c0.228,0.415,0.446,0.835,0.655,1.26c0.005,0.011,0.011,0.022,0.016,0.033c1.907,3.903,2.984,8.254,2.984,12.806v68.267
			c0,16.213-13.653,29.867-29.867,29.867c-16.213,0-29.867-13.653-29.867-29.867V105.667z M344.6,71.533V93.72v11.947v68.267v8.533
			c0,16.213-13.653,29.867-29.867,29.867s-29.867-13.653-29.867-29.867V71.533c0-16.213,13.653-29.867,29.867-29.867
			S344.6,55.32,344.6,71.533z M232.813,197.827c0.853-1.707,2.56-4.267,3.413-5.973c8.533-14.507,5.973-36.693-5.12-52.907
			c-1.113-1.59-2.315-3.06-3.589-4.413c-2.011-2.208-4.23-4.176-6.651-5.827c-2.269-1.62-6.755-4.224-12.8-5.149V63V45.933
			c0-16.213,13.653-29.867,29.867-29.867S267.8,29.72,267.8,45.933v25.6v110.933V191c0,16.213-13.653,29.867-30.72,29.867
			c-7.68,0-12.8,0-17.067-1.707C225.133,212.333,229.4,204.653,232.813,197.827z M161.133,33.133c13.836,0,25.8,9.945,29.013,22.937
			v70.189c-6.569,2.972-13.792,8.446-21.333,17.807c-10.592,13.24-23.245,24.931-37.547,35.09V63
			C131.267,46.787,144.92,33.133,161.133,33.133z M394.093,403.48c-3.522,4.226-7.051,8.468-11.053,13.653h-21.374
			c-5.12,0-8.533,3.413-8.533,8.533s3.413,8.533,8.533,8.533h17.067v35.84c0,11.093-4.267,23.893-17.067,23.893H165.4
			c-14.507,0-25.6-11.093-25.6-25.6v-27.974c11.225,5.647,20.48,10.054,20.48,10.054c0.853,0.853,2.56,0.853,3.413,0.853
			c3.413,0,5.973-1.707,7.68-5.12c1.707-4.267,0-9.387-4.267-11.093c0,0-14.693-7.347-29.764-15.223
			c-0.73-0.693-1.605-1.315-2.663-1.844c0,0-46.08-22.187-46.08-103.253V275.48c0-25.6,15.36-45.227,27.307-60.587
			c3.111-4.045,5.99-7.746,8.4-11.235c0.914-0.128,1.822-0.363,2.694-0.712c21.333-12.8,40.107-29.013,55.467-47.787
			c7.68-9.387,18.773-18.773,29.013-11.947c0.38,0.263,0.752,0.546,1.118,0.841c1.541,1.355,2.868,2.862,4.002,4.279
			c7.68,10.24,9.387,25.6,4.267,34.987c-0.804,2.413-2.358,4.076-3.249,6.402c-19.813,32.638-50.031,60.476-71.844,66.132
			c-4.267,0.853-6.827,5.973-5.973,10.24c1.707,3.413,5.12,5.973,8.533,5.973c0.853,0,1.707,0,1.707-0.853
			c19.073-5.155,39.386-20.903,56.624-39.897c8.826,6.611,19.908,6.617,30.416,6.617c18.393,0,34.301-10.319,42.007-25.209
			c8.661,10.152,21.498,16.675,35.646,16.675c17.711,0,33.374-10.214,41.349-24.984c8.658,10.022,21.408,16.451,35.451,16.451
			c11.268,0,21.707-4.136,29.867-10.948v75.801C421.4,369.347,415.427,377.027,394.093,403.48z"/>
	</g>
</g>
<g>
</g>
<g>
</g>
<g>
</g>
<g>
</g>
<g>
</g>
<g>
</g>
<g>
</g>
<g>
</g>
<g>
</g>
<g>
</g>
<g>
</g>
<g>
</g>
<g>
</g>
<g>
</g>
<g>
</g>
</svg>
