<?xml version="1.0" encoding="UTF-8"?>
<svg width="700pt" height="700pt" version="1.1" viewBox="0 0 700 700" xmlns="http://www.w3.org/2000/svg" xmlns:xlink="http://www.w3.org/1999/xlink">
 <defs>
  <symbol id="o" overflow="visible">
   <path d="m29.312-1.75c-1.5117 0.78125-3.0898 1.3711-4.7344 1.7656-1.6367 0.40625-3.3398 0.60938-5.1094 0.60938-5.3125 0-9.5273-1.4844-12.641-4.4531-3.1055-2.9688-4.6562-7-4.6562-12.094s1.5508-9.125 4.6562-12.094c3.1133-2.9688 7.3281-4.4531 12.641-4.4531 1.7695 0 3.4727 0.19922 5.1094 0.59375 1.6445 0.39844 3.2227 0.99219 4.7344 1.7812v6.5938c-1.5312-1.0391-3.0391-1.8008-4.5156-2.2812-1.4805-0.48828-3.0391-0.73438-4.6719-0.73438-2.9375 0-5.2461 0.94531-6.9219 2.8281-1.6797 1.875-2.5156 4.4648-2.5156 7.7656 0 3.293 0.83594 5.8828 2.5156 7.7656 1.6758 1.875 3.9844 2.8125 6.9219 2.8125 1.6328 0 3.1914-0.23828 4.6719-0.71875 1.4766-0.48828 2.9844-1.2539 4.5156-2.2969z"/>
  </symbol>
  <symbol id="i" overflow="visible">
   <path d="m21.453-17.406c-0.67969-0.3125-1.3516-0.53906-2.0156-0.6875-0.65625-0.15625-1.3203-0.23438-1.9844-0.23438-1.9688 0-3.4844 0.63281-4.5469 1.8906-1.0547 1.2617-1.5781 3.0703-1.5781 5.4219v11.016h-7.6562v-23.922h7.6562v3.9219c0.97656-1.5625 2.1016-2.7031 3.375-3.4219 1.2812-0.71875 2.8125-1.0781 4.5938-1.0781 0.25 0 0.52344 0.011719 0.82812 0.03125 0.30078 0.023438 0.73438 0.070312 1.2969 0.14062z"/>
  </symbol>
  <symbol id="a" overflow="visible">
   <path d="m27.562-12.031v2.1875h-17.891c0.1875 1.793 0.83203 3.1367 1.9375 4.0312 1.1133 0.89844 2.6719 1.3438 4.6719 1.3438 1.6016 0 3.25-0.23438 4.9375-0.70312 1.6875-0.47656 3.4219-1.2031 5.2031-2.1719v5.8906c-1.8047 0.6875-3.6094 1.2031-5.4219 1.5469-1.8125 0.35156-3.6211 0.53125-5.4219 0.53125-4.3359 0-7.7031-1.0977-10.109-3.2969-2.3984-2.207-3.5938-5.2969-3.5938-9.2656 0-3.9062 1.1758-6.9727 3.5312-9.2031 2.3633-2.2383 5.6094-3.3594 9.7344-3.3594 3.7578 0 6.7695 1.1367 9.0312 3.4062 2.2578 2.2617 3.3906 5.2812 3.3906 9.0625zm-7.8594-2.5312c0-1.457-0.42969-2.6289-1.2812-3.5156-0.84375-0.89453-1.9492-1.3438-3.3125-1.3438-1.4922 0-2.6992 0.41797-3.625 1.25-0.91797 0.83594-1.4922 2.0391-1.7188 3.6094z"/>
  </symbol>
  <symbol id="h" overflow="visible">
   <path d="m14.391-10.766c-1.5938 0-2.793 0.27344-3.5938 0.8125-0.80469 0.54297-1.2031 1.3398-1.2031 2.3906 0 0.96875 0.32031 1.7305 0.96875 2.2812 0.64453 0.54297 1.5469 0.8125 2.7031 0.8125 1.4375 0 2.6445-0.51562 3.625-1.5469 0.98828-1.0312 1.4844-2.3203 1.4844-3.875v-0.875zm11.688-2.8906v13.656h-7.7031v-3.5469c-1.0312 1.4492-2.1875 2.5078-3.4688 3.1719s-2.8398 1-4.6719 1c-2.4805 0-4.4961-0.72266-6.0469-2.1719-1.543-1.4453-2.3125-3.3203-2.3125-5.625 0-2.8125 0.96094-4.8672 2.8906-6.1719 1.9375-1.3125 4.9688-1.9688 9.0938-1.9688h4.5156v-0.60938c0-1.207-0.48047-2.0938-1.4375-2.6562-0.94922-0.5625-2.4375-0.84375-4.4688-0.84375-1.6367 0-3.1562 0.16797-4.5625 0.5-1.4062 0.32422-2.7188 0.8125-3.9375 1.4688v-5.8281c1.6445-0.40625 3.2891-0.70703 4.9375-0.90625 1.6562-0.20703 3.3047-0.3125 4.9531-0.3125 4.3203 0 7.4375 0.85547 9.3438 2.5625 1.9141 1.6992 2.875 4.4609 2.875 8.2812z"/>
  </symbol>
  <symbol id="g" overflow="visible">
   <path d="m12.031-30.719v6.7969h7.875v5.4688h-7.875v10.141c0 1.1172 0.21875 1.8711 0.65625 2.2656 0.4375 0.38672 1.3125 0.57812 2.625 0.57812h3.9375v5.4688h-6.5625c-3.0234 0-5.1641-0.62891-6.4219-1.8906-1.2617-1.2578-1.8906-3.3984-1.8906-6.4219v-10.141h-3.7969v-5.4688h3.7969v-6.7969z"/>
  </symbol>
  <symbol id="f" overflow="visible">
   <path d="m19.953-20.422v-12.812h7.6875v33.234h-7.6875v-3.4531c-1.0547 1.4062-2.2148 2.4375-3.4844 3.0938-1.2734 0.65625-2.7422 0.98438-4.4062 0.98438-2.9492 0-5.3711-1.1719-7.2656-3.5156-1.8867-2.3438-2.8281-5.3594-2.8281-9.0469s0.94141-6.7031 2.8281-9.0469c1.8945-2.3438 4.3164-3.5156 7.2656-3.5156 1.6562 0 3.1172 0.33594 4.3906 1 1.2812 0.65625 2.4453 1.6836 3.5 3.0781zm-5.0469 15.484c1.6445 0 2.8945-0.59766 3.75-1.7969 0.86328-1.1953 1.2969-2.9297 1.2969-5.2031 0-2.2812-0.43359-4.0195-1.2969-5.2188-0.85547-1.1953-2.1055-1.7969-3.75-1.7969-1.625 0-2.8711 0.60156-3.7344 1.7969-0.85547 1.1992-1.2812 2.9375-1.2812 5.2188 0 2.2734 0.42578 4.0078 1.2812 5.2031 0.86328 1.1992 2.1094 1.7969 3.7344 1.7969z"/>
  </symbol>
  <symbol id="e" overflow="visible">
   <path d="m16.406-4.9375c1.6328 0 2.8828-0.59766 3.75-1.7969 0.86328-1.1953 1.2969-2.9297 1.2969-5.2031 0-2.2812-0.43359-4.0195-1.2969-5.2188-0.86719-1.1953-2.1172-1.7969-3.75-1.7969-1.6367 0-2.8906 0.60547-3.7656 1.8125-0.875 1.1992-1.3125 2.9336-1.3125 5.2031 0 2.2617 0.4375 3.9961 1.3125 5.2031 0.875 1.1992 2.1289 1.7969 3.7656 1.7969zm-5.0781-15.484c1.0508-1.3945 2.2188-2.4219 3.5-3.0781 1.2812-0.66406 2.7539-1 4.4219-1 2.9453 0 5.3672 1.1719 7.2656 3.5156 1.8945 2.3438 2.8438 5.3594 2.8438 9.0469s-0.94922 6.7031-2.8438 9.0469c-1.8984 2.3438-4.3203 3.5156-7.2656 3.5156-1.668 0-3.1406-0.33594-4.4219-1s-2.4492-1.6914-3.5-3.0781v3.4531h-7.6562v-33.234h7.6562z"/>
  </symbol>
  <symbol id="d" overflow="visible">
   <path d="m0.53125-23.922h7.6562l6.4219 16.234 5.4688-16.234h7.6562l-10.062 26.188c-1.0117 2.6641-2.1953 4.5234-3.5469 5.5781-1.3438 1.0625-3.1211 1.5938-5.3281 1.5938h-4.4219v-5.0156h2.3906c1.3008 0 2.2422-0.21094 2.8281-0.625 0.59375-0.40625 1.0547-1.1484 1.3906-2.2188l0.20312-0.65625z"/>
  </symbol>
  <symbol id="c" overflow="visible">
   <path d="m4.0156-31.891h22.203v6.2188h-13.984v5.9375h13.141v6.2188h-13.141v13.516h-8.2188z"/>
  </symbol>
  <symbol id="n" overflow="visible">
   <path d="m3.6719-33.234h7.6562v33.234h-7.6562z"/>
  </symbol>
  <symbol id="b" overflow="visible">
   <path d="m15.062-19.031c-1.6992 0-2.9961 0.60938-3.8906 1.8281-0.88672 1.2188-1.3281 2.9766-1.3281 5.2656 0 2.293 0.44141 4.0469 1.3281 5.2656 0.89453 1.2188 2.1914 1.8281 3.8906 1.8281 1.6641 0 2.9375-0.60938 3.8125-1.8281 0.88281-1.2188 1.3281-2.9727 1.3281-5.2656 0-2.2891-0.44531-4.0469-1.3281-5.2656-0.875-1.2188-2.1484-1.8281-3.8125-1.8281zm0-5.4688c4.1133 0 7.3281 1.1094 9.6406 3.3281s3.4688 5.2969 3.4688 9.2344c0 3.9297-1.1562 7.0078-3.4688 9.2344-2.3125 2.2188-5.5273 3.3281-9.6406 3.3281-4.1367 0-7.3711-1.1094-9.7031-3.3281-2.3242-2.2266-3.4844-5.3047-3.4844-9.2344 0-3.9375 1.1602-7.0156 3.4844-9.2344 2.332-2.2188 5.5664-3.3281 9.7031-3.3281z"/>
  </symbol>
  <symbol id="m" overflow="visible">
   <path d="m1.5312-23.922h7.4375l4.0156 16.484 4.0469-16.484h6.375l4.0156 16.312 4.0469-16.312h7.4375l-6.3125 23.922h-8.3438l-4.0469-16.453-4.0156 16.453h-8.3438z"/>
  </symbol>
  <symbol id="l" overflow="visible">
   <path d="m3.6719-23.922h7.6562v23.922h-7.6562zm0-9.3125h7.6562v6.2344h-7.6562z"/>
  </symbol>
  <symbol id="k" overflow="visible">
   <path d="m23-23.172v6.2344c-1.0312-0.71875-2.0742-1.2422-3.125-1.5781-1.043-0.34375-2.125-0.51562-3.25-0.51562-2.1367 0-3.8047 0.625-5 1.875-1.1875 1.2422-1.7812 2.9805-1.7812 5.2188 0 2.2305 0.59375 3.9688 1.7812 5.2188 1.1953 1.25 2.8633 1.875 5 1.875 1.1953 0 2.332-0.17578 3.4062-0.53125 1.0703-0.36328 2.0625-0.89453 2.9688-1.5938v6.2656c-1.1875 0.4375-2.4023 0.76562-3.6406 0.98438-1.2305 0.22656-2.4648 0.34375-3.7031 0.34375-4.3125 0-7.6875-1.1094-10.125-3.3281s-3.6562-5.2969-3.6562-9.2344c0-3.9453 1.2188-7.0234 3.6562-9.2344 2.4375-2.2188 5.8125-3.3281 10.125-3.3281 1.25 0 2.4844 0.10938 3.7031 0.32812s2.4297 0.55469 3.6406 1z"/>
  </symbol>
  <symbol id="j" overflow="visible">
   <path d="m27.734-14.562v14.562h-7.7031v-11.156c0-2.0625-0.046875-3.4844-0.14062-4.2656-0.085937-0.78125-0.24219-1.3594-0.46875-1.7344-0.30469-0.5-0.71094-0.88281-1.2188-1.1562-0.51172-0.28125-1.0938-0.42188-1.75-0.42188-1.5938 0-2.8516 0.61719-3.7656 1.8438-0.90625 1.2305-1.3594 2.9375-1.3594 5.125v11.766h-7.6562v-23.922h7.6562v3.5c1.1445-1.3945 2.3633-2.4219 3.6562-3.0781 1.3008-0.66406 2.7383-1 4.3125-1 2.7578 0 4.8516 0.85156 6.2812 2.5469 1.4375 1.6875 2.1562 4.1523 2.1562 7.3906z"/>
  </symbol>
 </defs>
 <g>
  <path d="m562.79 434.88-4.6797 4.6797-60.086-60.086 26.426-26.418-0.003906 0.003907c5.5742-5.6133 8.6367-13.246 8.4922-21.156-0.14453-7.9062-3.4844-15.422-9.2578-20.828-5.7734-5.4062-13.492-8.2461-21.391-7.8711-7.9023 0.375-15.316 3.9297-20.555 9.8594l-41.074-37.293 155.96-171.87c1.0781-1.1875 1.8125-2.6523 2.1172-4.2266l13.809-71.75h-0.003907c0.51953-2.8438-0.39062-5.7617-2.4375-7.8086-2.043-2.043-4.9609-2.957-7.8086-2.4375l-71.766 13.824c-1.5781 0.30469-3.0391 1.0391-4.2266 2.1172l-176.21 159.91-176.21-159.94c-1.1875-1.0781-2.6523-1.8125-4.2266-2.1172l-71.75-13.809c-2.8477-0.52734-5.7773 0.37891-7.8242 2.4258-2.0508 2.0469-2.9648 4.9727-2.4414 7.8203l13.809 71.75c0.30469 1.5781 1.0391 3.0391 2.1172 4.2266l155.97 171.84-41.082 37.293c-5.2344-5.9297-12.648-9.4883-20.551-9.8633-7.9023-0.37109-15.617 2.4688-21.391 7.875-5.7734 5.4062-9.1133 12.922-9.2578 20.828-0.14453 7.9102 2.918 15.539 8.4922 21.156l26.418 26.418-60.078 60.082-4.6836-4.6367c-5.5703-5.3203-12.973-8.2891-20.676-8.2891-7.7031 0-15.105 2.9688-20.676 8.2891-5.4766 5.4883-8.5508 12.926-8.5508 20.676 0 7.7539 3.0742 15.188 8.5508 20.676l57.934 57.918c7.3867 7.3867 18.156 10.273 28.246 7.5703 10.094-2.7031 17.977-10.586 20.68-20.676 2.707-10.09-0.17578-20.859-7.5664-28.246l-4.6914-4.6797 60.086-60.086 26.418 26.426v-0.003906c5.6172 5.5742 13.246 8.6367 21.156 8.4922 7.9062-0.14453 15.422-3.4844 20.828-9.2578 5.4062-5.7734 8.2461-13.492 7.875-21.391-0.375-7.9023-3.9336-15.316-9.8594-20.555l32.91-36.25 32.91 36.25h-0.003907c-5.9297 5.2383-9.4844 12.652-9.8594 20.555-0.375 7.8984 2.4648 15.617 7.8711 21.391 5.4062 5.7734 12.922 9.1133 20.832 9.2578 7.9062 0.14453 15.539-2.918 21.152-8.4922l26.418-26.426 60.086 60.086-4.6797 4.6797-0.003906 0.003907c-7.25 7.4141-10.027 18.109-7.3086 28.117 2.7227 10.004 10.539 17.82 20.543 20.543 10.008 2.7188 20.703-0.0625 28.117-7.3086l57.961-57.961c5.4766-5.4883 8.5508-12.926 8.5508-20.676 0-7.7539-3.0742-15.188-8.5508-20.676-5.5742-5.3086-12.977-8.2617-20.672-8.2539-7.6953 0.007813-15.094 2.9805-20.652 8.2969zm-93.441-109.48-30.793 30.793-37.18-37.18 27.52-30.328zm-351.16-231.44-10.902-56.672 56.672 10.902 173.14 157.15-64.594 58.625zm64.828 427.8c-4.5938 4.5859-12.031 4.5859-16.625 0l-57.953-57.949c-4.5898-4.5938-4.5898-12.035 0-16.625 4.5938-4.5938 12.035-4.5938 16.625 0l57.969 57.961v-0.003907c4.5742 4.5977 4.5664 12.031-0.015625 16.617zm-4.6914-46.023-23.852-23.852 60.086-60.086 23.852 23.824zm127.86-33.672c-2.2031 2.207-5.1953 3.4453-8.3125 3.4453-3.1172 0-6.1094-1.2383-8.3125-3.4453l-101.43-101.43c-4.5898-4.5898-4.5898-12.035 0-16.625 4.5898-4.5898 12.035-4.5898 16.625 0l101.43 101.46c4.5586 4.5938 4.5586 12.004 0 16.598zm-1.3633-42.707-30.801-30.809 55.93-56.121v-0.003907c3.3125-3.4375 3.2578-8.8945-0.125-12.266-3.3789-3.3711-8.8359-3.4102-12.266-0.085937l-55.93 56.102-30.773-30.781 305.38-277.21 56.672-10.902-10.902 56.672zm57.102-36.891 27.684-30.492 36.582 36.582-30.789 30.793zm48.719 79.625c-4.5898 4.5898-12.035 4.5898-16.625 0-4.5898-4.5898-4.5898-12.035 0-16.625l101.46-101.44c4.5898-4.5938 12.035-4.5938 16.625 0 4.5898 4.5898 4.5898 12.031 0 16.625zm51.16-26.469 23.828-23.828 60.086 60.086-23.824 23.855zm129.97 48.125-57.961 57.961h0.003906c-4.5938 4.5898-12.035 4.5898-16.625 0-4.5938-4.5938-4.5938-12.035 0-16.625 0 0 43.629-43.32 57.961-57.961h-0.003907c4.5938-4.5898 12.035-4.5898 16.625 0 4.5938 4.5898 4.5938 12.035 0 16.625z"/>
  <path d="m299.69 21.605c-4.1836 2.4141-5.6172 7.7656-3.2031 11.949l21.875 37.887v0.003906c1.1523 2.0234 3.0664 3.5078 5.3164 4.1172 2.2461 0.61328 4.6484 0.30078 6.6641-0.86719 2.0195-1.1641 3.4922-3.0859 4.0859-5.3398 0.59766-2.2539 0.26953-4.6523-0.91016-6.6602l-21.875-37.887v-0.003906c-2.418-4.1836-7.7695-5.6172-11.953-3.1992z"/>
  <path d="m388.36 24.805-21.875 37.887v0.003906c-1.1797 2.0078-1.5078 4.4062-0.91016 6.6602 0.59375 2.2539 2.0664 4.1758 4.0859 5.3398 2.0156 1.168 4.418 1.4805 6.6641 0.86719 2.25-0.60938 4.1641-2.0938 5.3164-4.1172l21.875-37.887v-0.003906c2.375-4.1797 0.93359-9.4961-3.2305-11.902-4.168-2.4023-9.4922-0.99609-11.926 3.1523z"/>
  <path d="m600.82 195.86-37.887 21.875h-0.003906c-2.0234 1.1523-3.5078 3.0664-4.1172 5.3164-0.61328 2.2461-0.30078 4.6484 0.86719 6.6641 1.1641 2.0195 3.0859 3.4922 5.3398 4.0859 2.2539 0.59766 4.6523 0.26953 6.6602-0.91016l37.887-21.875h0.003906c4.1484-2.4336 5.5547-7.7578 3.1523-11.926-2.4062-4.1641-7.7227-5.6055-11.902-3.2305z"/>
  <path d="m609.57 287.73-37.887-21.875h-0.003906c-2.0078-1.1797-4.4062-1.5078-6.6602-0.91016-2.2539 0.59375-4.1758 2.0664-5.3398 4.0859-1.168 2.0156-1.4805 4.418-0.86719 6.6641 0.60938 2.25 2.0938 4.1641 4.1172 5.3164l37.887 21.875h0.003906c4.1797 2.375 9.4961 0.93359 11.902-3.2305 2.4023-4.168 0.99609-9.4922-3.1523-11.926z"/>
  <path d="m99.18 302.89 37.887-21.875h0.003906c2.0234-1.1523 3.5078-3.0664 4.1172-5.3164 0.61328-2.2461 0.30078-4.6484-0.86719-6.6641-1.1641-2.0195-3.0859-3.4922-5.3398-4.0859-2.2539-0.59766-4.6523-0.26953-6.6602 0.91016l-37.887 21.875h-0.003906c-4.1484 2.4336-5.5547 7.7578-3.1523 11.926 2.4062 4.1641 7.7227 5.6055 11.902 3.2305z"/>
  <path d="m90.43 211.02 37.887 21.875h0.003906c2.0078 1.1797 4.4062 1.5078 6.6602 0.91016 2.2539-0.59375 4.1758-2.0664 5.3398-4.0859 1.168-2.0156 1.4805-4.418 0.86719-6.6641-0.60938-2.25-2.0938-4.1641-4.1172-5.3164l-37.887-21.875h-0.003906c-4.1797-2.375-9.4961-0.93359-11.902 3.2305-2.4023 4.168-0.99609 9.4922 3.1523 11.926z"/>
  <path d="m358.75 280c0 4.832-3.918 8.75-8.75 8.75s-8.75-3.918-8.75-8.75 3.918-8.75 8.75-8.75 8.75 3.918 8.75 8.75"/>
  <use x="70" y="691.25" xlink:href="#o"/>
  <use x="102.109375" y="691.25" xlink:href="#i"/>
  <use x="123.683594" y="691.25" xlink:href="#a"/>
  <use x="153.355469" y="691.25" xlink:href="#h"/>
  <use x="182.878906" y="691.25" xlink:href="#g"/>
  <use x="203.792969" y="691.25" xlink:href="#a"/>
  <use x="233.464844" y="691.25" xlink:href="#f"/>
  <use x="280.011719" y="691.25" xlink:href="#e"/>
  <use x="311.328125" y="691.25" xlink:href="#d"/>
  <use x="355.078125" y="691.25" xlink:href="#c"/>
  <use x="384.964844" y="691.25" xlink:href="#n"/>
  <use x="399.960938" y="691.25" xlink:href="#b"/>
  <use x="430.019531" y="691.25" xlink:href="#m"/>
  <use x="470.4375" y="691.25" xlink:href="#l"/>
  <use x="485.433594" y="691.25" xlink:href="#k"/>
  <use x="511.367188" y="691.25" xlink:href="#b"/>
  <use x="541.421875" y="691.25" xlink:href="#j"/>
 </g>
</svg>
