<?xml version="1.0" encoding="iso-8859-1"?>
<!-- Generator: Adobe Illustrator 17.1.0, SVG Export Plug-In . SVG Version: 6.00 Build 0)  -->
<!DOCTYPE svg PUBLIC "-//W3C//DTD SVG 1.1//EN" "http://www.w3.org/Graphics/SVG/1.1/DTD/svg11.dtd">
<svg version="1.1" id="Capa_1" xmlns="http://www.w3.org/2000/svg" xmlns:xlink="http://www.w3.org/1999/xlink" x="0px" y="0px"
	 viewBox="0 0 511.818 511.818" style="enable-background:new 0 0 511.818 511.818;" xml:space="preserve">
<path d="M504.79,436.929c-4.532-4.532-10.557-7.027-16.966-7.027c-3.641,0-7.157,0.807-10.346,2.334l-58.733-58.733l28.272-28.272
	c4.532-4.532,7.027-10.557,7.027-16.966s-2.496-12.435-7.027-16.966s-10.557-7.027-16.966-7.027s-12.435,2.496-16.966,7.027
	l-11.308,11.308l-66.296-66.296c-0.135-0.135-0.278-0.256-0.42-0.38L498.164,92.825c1.224-1.224,2.018-2.812,2.263-4.525
	l11.31-79.167c0.356-2.493-0.482-5.008-2.263-6.788c-1.78-1.781-4.298-2.623-6.788-2.263l-79.167,11.31
	c-1.713,0.245-3.301,1.039-4.525,2.263L255.909,176.739L92.824,13.654c-1.224-1.224-2.812-2.018-4.525-2.263L9.132,0.082
	C6.64-0.278,4.124,0.564,2.344,2.345C0.563,4.125-0.275,6.64,0.081,9.133l11.31,79.167c0.245,1.713,1.039,3.302,2.263,4.525
	L176.339,255.51c0.135,0.135,0.278,0.256,0.42,0.38l-66.716,66.717l-11.308-11.308c-4.532-4.532-10.557-7.027-16.966-7.027
	s-12.435,2.496-16.966,7.027s-7.027,10.557-7.027,16.966s2.496,12.435,7.027,16.966l28.272,28.272l-58.733,58.733
	c-3.19-1.526-6.706-2.334-10.346-2.334c-6.409,0-12.435,2.496-16.966,7.027s-7.027,10.557-7.027,16.966s2.496,12.435,7.027,16.966
	l33.929,33.929c4.532,4.532,10.557,7.027,16.966,7.027s12.435-2.496,16.966-7.027s7.027-10.557,7.027-16.966
	c0-3.641-0.807-7.157-2.334-10.346l58.733-58.733l28.272,28.272c4.532,4.532,10.557,7.027,16.966,7.027s12.435-2.496,16.966-7.027
	c9.355-9.355,9.355-24.578,0-33.933l-11.308-11.308l66.716-66.716c0.123,0.142,0.245,0.285,0.38,0.42l66.296,66.296l-11.308,11.308
	c-9.355,9.355-9.355,24.578,0,33.933c4.532,4.532,10.557,7.027,16.966,7.027s12.435-2.496,16.966-7.027l28.272-28.272l58.733,58.733
	c-1.526,3.19-2.334,6.706-2.334,10.346c0,6.409,2.496,12.435,7.027,16.966s10.557,7.027,16.966,7.027s12.435-2.496,16.966-7.027
	l33.929-33.929c4.532-4.532,7.027-10.557,7.027-16.966S509.321,441.461,504.79,436.929z M324.166,267.623l66.296,66.296
	l-22.615,22.615l-66.296-66.296c-0.135-0.135-0.278-0.257-0.42-0.38l22.655-22.655C323.909,267.345,324.031,267.488,324.166,267.623
	z M187.652,244.196L26.853,83.396l-7.538-52.768L75.856,87.17c1.562,1.562,3.609,2.343,5.657,2.343s4.095-0.781,5.657-2.343
	c3.125-3.124,3.125-8.189,0-11.313L30.628,19.315l52.768,7.538l161.199,161.199l-22.635,22.635c-0.123-0.142-0.245-0.285-0.38-0.42
	L109.788,98.475c-3.124-3.124-8.189-3.124-11.313,0c-3.125,3.124-3.125,8.189,0,11.313l111.792,111.792
	c0.135,0.135,0.278,0.257,0.42,0.38l-22.655,22.655C187.908,244.474,187.787,244.331,187.652,244.196z M63.576,493.477
	c-1.51,1.51-3.517,2.341-5.653,2.341s-4.143-0.831-5.653-2.341l-33.929-33.929c-1.51-1.51-2.341-3.517-2.341-5.653
	s0.831-4.143,2.341-5.652c1.51-1.51,3.518-2.341,5.653-2.341c2.136,0,4.143,0.831,5.653,2.341l33.929,33.929
	c1.51,1.51,2.341,3.517,2.341,5.653S65.086,491.967,63.576,493.477z M69.233,465.201l-22.615-22.615l57.77-57.77l22.615,22.615
	L69.233,465.201z M189.207,435.703c-1.51,1.51-3.517,2.341-5.653,2.341s-4.143-0.831-5.653-2.341L76.115,333.917
	c-1.51-1.51-2.341-3.517-2.341-5.653s0.831-4.143,2.341-5.653s3.517-2.341,5.653-2.341s4.143,0.831,5.653,2.341l16.964,16.964
	l33.924,33.924c0.002,0.002,0.003,0.003,0.005,0.005s0.003,0.003,0.005,0.005l33.924,33.924l16.964,16.964
	C192.323,427.514,192.323,432.586,189.207,435.703z M155.284,367.848l258.059-258.059c3.125-3.124,3.125-8.189,0-11.313
	c-3.124-3.124-8.189-3.124-11.313,0L143.971,356.534l-22.615-22.615L428.422,26.853l52.768-7.538l-56.541,56.542
	c-3.125,3.124-3.125,8.189,0,11.313c1.562,1.562,3.609,2.343,5.657,2.343s4.095-0.781,5.657-2.343l56.541-56.542l-7.538,52.768
	L177.899,390.463L155.284,367.848z M267.622,324.166c-0.135-0.135-0.278-0.256-0.42-0.38l22.655-22.655
	c0.123,0.142,0.245,0.285,0.38,0.42l66.296,66.296l-22.615,22.615L267.622,324.166z M333.917,435.703
	c-1.51,1.51-3.517,2.341-5.653,2.341s-4.143-0.831-5.653-2.341c-3.117-3.117-3.117-8.188,0-11.306l16.964-16.964l33.924-33.924
	c0.002-0.002,0.003-0.003,0.005-0.005s0.003-0.003,0.005-0.005l33.924-33.924l16.964-16.964c1.51-1.51,3.517-2.341,5.653-2.341
	s4.143,0.831,5.653,2.341s2.341,3.517,2.341,5.653s-0.831,4.143-2.341,5.653L333.917,435.703z M407.43,384.816l57.77,57.77
	l-22.615,22.615l-57.77-57.77L407.43,384.816z M493.476,459.548l-33.929,33.929c-1.51,1.51-3.517,2.341-5.653,2.341
	s-4.143-0.831-5.653-2.341s-2.341-3.517-2.341-5.653s0.831-4.143,2.341-5.653l33.929-33.929c1.51-1.51,3.517-2.341,5.653-2.341
	s4.143,0.831,5.653,2.341s2.341,3.517,2.341,5.653S494.986,458.038,493.476,459.548z"/>
<g>
</g>
<g>
</g>
<g>
</g>
<g>
</g>
<g>
</g>
<g>
</g>
<g>
</g>
<g>
</g>
<g>
</g>
<g>
</g>
<g>
</g>
<g>
</g>
<g>
</g>
<g>
</g>
<g>
</g>
</svg>
